<svg width="30" height="30" viewBox="0 0 30 30" fill="none" xmlns="http://www.w3.org/2000/svg">
<path d="M27.55 0.875C29.1 3.025 30 4.975 30 6.575C30 7.925 28.9 9.075 27.55 9.075C26.2 9.075 25.1 7.975 25.1 6.575C25.1 4.975 26 2.975 27.55 0.875ZM19.2 5.925C20.75 8.075 21.65 10.025 21.65 11.625C21.65 12.975 20.55 14.125 19.2 14.125C17.85 14.125 16.75 13.025 16.75 11.625C16.7 10.025 17.65 8.025 19.2 5.925ZM10.8 0.875C12.35 3.025 13.25 4.975 13.25 6.575C13.25 7.925 12.15 9.075 10.8 9.075C9.45 9.075 8.35 7.975 8.35 6.575C8.35 4.975 9.3 2.975 10.8 0.875ZM2.45 5.925C4 8.075 4.9 10.025 4.9 11.625C4.9 12.975 3.8 14.125 2.45 14.125C1.1 14.125 0 13.025 0 11.625C0 10.025 0.9 8.025 2.45 5.925Z" fill="#75D6FF"/>
<path d="M27.55 15.875C29.1 18.025 30 19.975 30 21.575C30 22.925 28.9 24.075 27.55 24.075C26.2 24.075 25.1 22.975 25.1 21.575C25.1 19.975 26 17.975 27.55 15.875ZM19.2 20.925C20.75 23.075 21.65 25.025 21.65 26.625C21.65 27.975 20.55 29.125 19.2 29.125C17.85 29.125 16.75 28.025 16.75 26.625C16.7 25.025 17.65 23.025 19.2 20.925ZM10.8 15.875C12.35 18.025 13.25 19.975 13.25 21.575C13.25 22.925 12.15 24.075 10.8 24.075C9.45 24.075 8.35 22.975 8.35 21.575C8.35 19.975 9.3 17.975 10.8 15.875ZM2.45 20.925C4 23.075 4.9 25.025 4.9 26.625C4.9 27.975 3.8 29.125 2.45 29.125C1.1 29.125 0 28.025 0 26.625C0 25.025 0.9 23.025 2.45 20.925Z" fill="#75D6FF"/>
</svg>
