<svg width="30" height="32" viewBox="0 0 30 32" fill="none" xmlns="http://www.w3.org/2000/svg">
<path d="M15 1.05908V16V1.05908Z" fill="black"/>
<path d="M15 1.05908V16" stroke="#75D6FF" stroke-width="2" stroke-linecap="round"/>
<path d="M15 6.72605L11.3936 3.11963L15 6.72605Z" fill="black"/>
<path d="M15 6.72605L11.3936 3.11963" stroke="#75D6FF" stroke-width="2" stroke-linecap="round"/>
<path d="M15 6.72605L18.6064 3.11963L15 6.72605Z" fill="black"/>
<path d="M15 6.72605L18.6064 3.11963" stroke="#75D6FF" stroke-width="2" stroke-linecap="round"/>
<path d="M14.9998 11.3631L12.4238 8.78711L14.9998 11.3631Z" fill="black"/>
<path d="M14.9998 11.3631L12.4238 8.78711" stroke="#75D6FF" stroke-width="2" stroke-linecap="round"/>
<path d="M15 11.3631L17.576 8.78711L15 11.3631Z" fill="black"/>
<path d="M15 11.3631L17.576 8.78711" stroke="#75D6FF" stroke-width="2" stroke-linecap="round"/>
<path d="M27.9395 8.52979L15.0003 16.0002L27.9395 8.52979Z" fill="black"/>
<path d="M27.9395 8.52979L15.0003 16.0002" stroke="#75D6FF" stroke-width="2" stroke-linecap="round"/>
<path d="M21.6926 12.1356L23.2012 6.50537L21.6926 12.1356Z" fill="black"/>
<path d="M21.6926 12.1356L23.2012 6.50537" stroke="#75D6FF" stroke-width="2" stroke-linecap="round"/>
<path d="M21.6928 12.136L27.323 13.6446L21.6928 12.136Z" fill="black"/>
<path d="M21.6928 12.136L27.323 13.6446" stroke="#75D6FF" stroke-width="2" stroke-linecap="round"/>
<path d="M27.9395 23.4707L15.0003 16.0003L27.9395 23.4707Z" fill="black"/>
<path d="M27.9395 23.4707L15.0003 16.0003" stroke="#75D6FF" stroke-width="2" stroke-linecap="round"/>
<path d="M23.0315 20.6369L27.958 19.3169L23.0315 20.6369Z" fill="black"/>
<path d="M23.0315 20.6369L27.958 19.3169" stroke="#75D6FF" stroke-width="2" stroke-linecap="round"/>
<path d="M23.0315 20.6367L24.3516 25.5632L23.0315 20.6367Z" fill="black"/>
<path d="M23.0315 20.6367L24.3516 25.5632" stroke="#75D6FF" stroke-width="2" stroke-linecap="round"/>
<path d="M19.0158 18.3184L22.5347 17.3755L19.0158 18.3184Z" fill="black"/>
<path d="M19.0158 18.3184L22.5347 17.3755" stroke="#75D6FF" stroke-width="2" stroke-linecap="round"/>
<path d="M19.0157 18.3184L19.9586 21.8373L19.0157 18.3184Z" fill="black"/>
<path d="M19.0157 18.3184L19.9586 21.8373" stroke="#75D6FF" stroke-width="2" stroke-linecap="round"/>
<path d="M15 30.9409V16V30.9409Z" fill="black"/>
<path d="M15 30.9409V16" stroke="#75D6FF" stroke-width="2" stroke-linecap="round"/>
<path d="M15 23.728L19.1216 27.8496L15 23.728Z" fill="black"/>
<path d="M15 23.728L19.1216 27.8496" stroke="#75D6FF" stroke-width="2" stroke-linecap="round"/>
<path d="M15 23.728L10.8784 27.8496L15 23.728Z" fill="black"/>
<path d="M15 23.728L10.8784 27.8496" stroke="#75D6FF" stroke-width="2" stroke-linecap="round"/>
<path d="M2.06055 23.4707L14.9997 16.0003L2.06055 23.4707Z" fill="black"/>
<path d="M2.06055 23.4707L14.9997 16.0003" stroke="#75D6FF" stroke-width="2" stroke-linecap="round"/>
<path d="M6.96848 20.6365L5.64844 25.563L6.96848 20.6365Z" fill="black"/>
<path d="M6.96848 20.6365L5.64844 25.563" stroke="#75D6FF" stroke-width="2" stroke-linecap="round"/>
<path d="M6.96847 20.6367L2.042 19.3167L6.96847 20.6367Z" fill="black"/>
<path d="M6.96847 20.6367L2.042 19.3167" stroke="#75D6FF" stroke-width="2" stroke-linecap="round"/>
<path d="M10.9844 18.3185L10.0415 21.8374L10.9844 18.3185Z" fill="black"/>
<path d="M10.9844 18.3185L10.0415 21.8374" stroke="#75D6FF" stroke-width="2" stroke-linecap="round"/>
<path d="M10.9843 18.3184L7.46541 17.3756L10.9843 18.3184Z" fill="black"/>
<path d="M10.9843 18.3184L7.46541 17.3756" stroke="#75D6FF" stroke-width="2" stroke-linecap="round"/>
<path d="M2.06055 8.52979L14.9997 16.0002L2.06055 8.52979Z" fill="black"/>
<path d="M2.06055 8.52979L14.9997 16.0002" stroke="#75D6FF" stroke-width="2" stroke-linecap="round"/>
<path d="M8.30749 12.1359L2.67725 13.6445L8.30749 12.1359Z" fill="black"/>
<path d="M8.30749 12.1359L2.67725 13.6445" stroke="#75D6FF" stroke-width="2" stroke-linecap="round"/>
<path d="M8.30722 12.136L6.7986 6.50577L8.30722 12.136Z" fill="black"/>
<path d="M8.30722 12.136L6.7986 6.50577" stroke="#75D6FF" stroke-width="2" stroke-linecap="round"/>
</svg>
