<svg width="30" height="30" viewBox="0 0 30 30" fill="none" xmlns="http://www.w3.org/2000/svg">
<path d="M9.2499 28.8499L12.7499 25.2499C11.4999 24.9999 10.3499 24.4999 9.2999 23.7999L9.2499 28.8499ZM20.7499 1.1499L17.2499 4.7499C18.4999 4.9999 19.6499 5.4999 20.6999 6.1999L20.7499 1.1499ZM1.1499 20.7499L6.1999 20.6999C5.4999 19.6499 4.9999 18.4999 4.7499 17.2499L1.1499 20.7499ZM28.8499 9.2499L23.7999 9.2999C24.4499 10.3499 24.9499 11.4999 25.2499 12.7499L28.8499 9.2499ZM1.1499 9.2499L4.7499 12.7499C4.9999 11.4999 5.4999 10.3499 6.1999 9.2999L1.1499 9.2499ZM28.8499 20.7499L25.2499 17.2499C24.9999 18.4999 24.4999 19.6499 23.7999 20.6999L28.8499 20.7499ZM9.2499 1.1499L9.2999 6.1999C10.3499 5.5499 11.4999 5.0499 12.7499 4.7499L9.2499 1.1499ZM20.7499 28.8499L20.6999 23.7999C19.6499 24.4999 18.4999 24.9999 17.2499 25.2499L20.7499 28.8499Z" fill="#FFE62E"/>
<path d="M6.4 21L4.4 25.65L9.05 23.65C8 22.9 7.1 22 6.4 21ZM23.6 9L25.6 4.35L21 6.35C22 7.1 22.9 8 23.6 9ZM4.7 13.15L0 15L4.7 16.85C4.55 16.25 4.5 15.65 4.5 15C4.5 14.35 4.55 13.75 4.7 13.15ZM25.3 16.85L30 15L25.3 13.15C25.4 13.75 25.5 14.4 25.5 15C25.5 15.65 25.45 16.25 25.3 16.85ZM9 6.4L4.35 4.4L6.35 9.05C7.1 8 8 7.1 9 6.4ZM21 23.6L25.65 25.6L23.65 20.95C22.9 22 22 22.9 21 23.6ZM16.85 4.7L15 0L13.15 4.7C13.75 4.6 14.4 4.5 15 4.5C15.6 4.5 16.25 4.55 16.85 4.7ZM13.15 25.3L15 30L16.85 25.3C16.25 25.45 15.65 25.5 15 25.5C14.35 25.5 13.75 25.45 13.15 25.3Z" fill="#FFCE31"/>
<path d="M15 24.5C20.2467 24.5 24.5 20.2467 24.5 15C24.5 9.75329 20.2467 5.5 15 5.5C9.75329 5.5 5.5 9.75329 5.5 15C5.5 20.2467 9.75329 24.5 15 24.5Z" fill="#FFCE31"/>
</svg>
